<?xml version="1.0" encoding="UTF-8" standalone="no"?>
<!DOCTYPE svg PUBLIC "-//W3C//DTD SVG 1.1//EN" "http://www.w3.org/Graphics/SVG/1.1/DTD/svg11.dtd">
<!-- Created with Vectornator (http://vectornator.io/) -->
<svg height="100%" stroke-miterlimit="10" style="fill-rule:nonzero;clip-rule:evenodd;stroke-linecap:round;stroke-linejoin:round;" version="1.1" viewBox="0 0 1024 1024" width="100%" xml:space="preserve" xmlns="http://www.w3.org/2000/svg" xmlns:xlink="http://www.w3.org/1999/xlink">
<defs/>
<g id="レイヤー-1">
<path d="M330.888 68.0084L693.112 68.0084C734.659 68.0084 785.179 97.1761 805.952 133.156L987.064 446.852C1007.84 482.832 1007.84 541.168 987.064 577.148L805.952 890.844C785.179 926.824 734.659 955.992 693.112 955.992L330.888 955.992C289.341 955.992 238.821 926.824 218.048 890.844L36.9358 577.148C16.1626 541.168 16.1626 482.832 36.9358 446.852L218.048 133.156C238.821 97.176 289.341 68.0084 330.888 68.0084Z" fill="#ebebeb" fill-rule="nonzero" opacity="1" stroke="none"/>
<path d="M347.688 204C340.224 204 331.138 209.223 327.406 215.688L163.094 500.281C159.362 506.745 159.362 517.255 163.094 523.719L327.406 808.312C331.138 814.776 340.224 820 347.688 820L676.312 820C683.776 820 692.862 814.777 696.594 808.312L860.906 523.719C864.638 517.255 864.638 506.745 860.906 500.281L696.594 215.688C692.862 209.223 683.776 204 676.312 204L347.688 204ZM347.688 214L676.312 214C680.204 214 685.992 217.318 687.938 220.688L852.219 505.281C854.164 508.651 854.165 515.349 852.219 518.719L687.938 803.312C685.992 806.682 680.204 810 676.312 810L347.688 810C343.796 810 338.008 806.682 336.062 803.312L171.781 518.719C169.836 515.349 169.836 508.651 171.781 505.281L336.062 220.688C338.008 217.318 343.796 214 347.688 214Z" fill="#c5c8ff" fill-rule="nonzero" opacity="1" stroke="none"/>
<path d="M272.75 84.0312C269.634 85.6577 266.567 87.2955 263.562 89.125L263.562 89.1562L333.125 209.625L338.094 218.281L504.656 506.75L171.25 506.75L160.875 506.75L21.6562 506.75C21.5406 510.264 21.5406 513.736 21.6562 517.25L160.875 517.25L171.25 517.25L504.656 517.25L338.094 805.719L333.125 814.375L263.562 934.844C266.572 936.677 269.629 938.34 272.75 939.969L342.5 819.188L347.781 810L513.781 522.531L679.438 809.438L684.406 818.094L753.969 938.594C756.996 936.939 759.904 935.158 762.812 933.312C762.884 933.268 762.96 933.232 763.031 933.188L693.281 812.406L688 803.219L522.875 517.25L852.75 517.25L863.125 517.25L1002.34 517.25C1002.46 513.736 1002.46 510.264 1002.34 506.75L863.125 506.75L852.75 506.75L522.875 506.75L688 220.781L693.281 211.594L763.031 90.8125C760.051 88.9179 757.07 87.1014 753.969 85.4062L684.406 205.906L679.438 214.562L513.75 501.469L347.781 214L342.5 204.812L272.75 84.0312Z" fill="#c5c8ff" fill-rule="nonzero" opacity="1" stroke="none"/>
<path d="M330.875 68C289.329 68 238.836 97.1761 218.062 133.156L36.9375 446.844C16.1643 482.824 16.1643 541.176 36.9375 577.156L218.062 890.844C238.836 926.824 289.329 956 330.875 956L693.125 956C734.671 956 785.164 926.824 805.938 890.844L987.062 577.156C1007.84 541.176 1007.84 482.824 987.062 446.844L805.938 133.156C785.164 97.1761 734.671 68 693.125 68L330.875 68ZM330.875 98L693.125 98C723.953 98 764.555 121.458 779.969 148.156L961.094 461.844C976.508 488.542 976.508 535.458 961.094 562.156L779.969 875.844C764.555 902.542 723.953 926 693.125 926L330.875 926C300.047 926 259.445 902.542 244.031 875.844L62.9062 562.156C47.4921 535.458 47.4921 488.542 62.9062 461.844L244.031 148.156C259.445 121.458 300.047 98 330.875 98ZM350.406 181.969C334.411 181.969 314.967 193.21 306.969 207.062L145.406 486.906C137.408 500.759 137.408 523.241 145.406 537.094L306.969 816.938C314.967 830.791 334.411 842.031 350.406 842.031L356.656 842.031C365.493 842.031 372.656 834.868 372.656 826.031L372.656 614.219C372.656 607.591 378.029 602.219 384.656 602.219L827.969 602.219C835.118 602.219 843.793 597.238 847.438 591.062L878.594 537.094C886.592 523.241 886.592 500.759 878.594 486.906L873.812 478.656C870.308 472.587 861.79 467.656 854.781 467.656L384.656 467.656C378.029 467.656 372.656 462.284 372.656 455.656L372.656 327.031C372.656 320.404 378.029 315.031 384.656 315.031L757.875 315.031C769.738 315.031 774.561 306.707 768.656 296.438L717.031 207.062C709.033 193.21 689.589 181.969 673.594 181.969L350.406 181.969Z" fill="#4f58f9" fill-rule="nonzero" opacity="1" stroke="none"/>
</g>
</svg>
